<?xml version="1.0" encoding="UTF-8" standalone="no"?>
<!-- Created with Inkscape (http://www.inkscape.org/) -->

<svg
   xmlns:dc="http://purl.org/dc/elements/1.1/"
   xmlns:cc="http://creativecommons.org/ns#"
   xmlns:rdf="http://www.w3.org/1999/02/22-rdf-syntax-ns#"
   xmlns:svg="http://www.w3.org/2000/svg"
   xmlns="http://www.w3.org/2000/svg"
   xmlns:sodipodi="http://sodipodi.sourceforge.net/DTD/sodipodi-0.dtd"
   xmlns:inkscape="http://www.inkscape.org/namespaces/inkscape"
   id="svg2"
   version="1.1"
   inkscape:version="0.48.3.1 r9886"
   width="24"
   height="24"
   sodipodi:docname="grive-app-ind-con-3.svg">
  <metadata
     id="metadata8">
    <rdf:RDF>
      <cc:Work
         rdf:about="">
        <dc:format>image/svg+xml</dc:format>
        <dc:type
           rdf:resource="http://purl.org/dc/dcmitype/StillImage" />
        <dc:title />
      </cc:Work>
    </rdf:RDF>
  </metadata>
  <defs
     id="defs6" />
  <sodipodi:namedview
     pagecolor="#ffffff"
     bordercolor="#666666"
     borderopacity="1"
     objecttolerance="10"
     gridtolerance="10"
     guidetolerance="10"
     inkscape:pageopacity="0"
     inkscape:pageshadow="2"
     inkscape:window-width="1855"
     inkscape:window-height="1056"
     id="namedview4"
     showgrid="false"
     inkscape:zoom="9.92"
     inkscape:cx="7.5301006"
     inkscape:cy="34.823187"
     inkscape:window-x="65"
     inkscape:window-y="24"
     inkscape:window-maximized="1"
     inkscape:current-layer="g4431"
     showguides="true"
     inkscape:guide-bbox="true" />
  <g
     id="g4431"
     transform="translate(0.01112805,-40.003561)">
    <g
       id="g3186"
       transform="translate(-5.3185698,7.3012261)">
      <path
         sodipodi:nodetypes="ccccc"
         style="fill:#dfdbd2;fill-opacity:1;stroke:#000000;stroke-width:0.03750969;stroke-miterlimit:3.5333333;stroke-opacity:1;stroke-dasharray:none"
         d="m 8.5183855,47.131668 c 1.8689885,-3.310083 3.7788985,-6.682216 5.3243485,-9.371578 0.999875,1.559605 2.260793,3.777503 3.037669,5.118839 -1.953972,3.43728 -3.348467,5.864516 -5.348578,9.3911 C 10.485323,50.50464 9.3796402,48.606996 8.5183855,47.131668 z"
         id="path4425"
         inkscape:connector-curvature="0" />
      <path
         sodipodi:nodetypes="ccccc"
         style="opacity:0.4;fill:#dfdbd2;fill-opacity:1;stroke:#000000;stroke-width:0.03750969;stroke-miterlimit:3.5333333;stroke-opacity:1;stroke-dasharray:none"
         d="m 14.260947,37.106704 c 2.167308,-6e-4 3.801322,-0.01474 6.133907,0.0051 1.945221,3.356713 3.677024,6.336873 5.405018,9.322743 -2.056385,0 -4.11277,0 -6.169155,0 -1.744881,-3.132464 -3.557581,-6.210807 -5.36977,-9.327867 z"
         id="path4427"
         inkscape:connector-curvature="0" />
      <path
         sodipodi:nodetypes="ccccc"
         style="opacity:0.4;fill:#dfdbd2;fill-opacity:1;stroke:#000000;stroke-width:0.03750969;stroke-miterlimit:3.5333333;stroke-opacity:1;stroke-dasharray:none"
         d="m 15.24892,47.046356 c 3.892496,-0.03799 7.652999,-0.0049 10.847578,-0.02004 -1.068243,1.902035 -1.974187,3.488975 -3.005323,5.259192 -3.643786,0.006 -7.287572,0.01193 -10.931357,0.0179 1.057781,-1.838315 2.000735,-3.42753 3.089102,-5.257054 z"
         id="path4429"
         inkscape:connector-curvature="0" />
    </g>
  </g>
</svg>
